<?xml version="1.0" encoding="UTF-8"?>
<svg class="home-logo fade-in" xmlns="http://www.w3.org/2000/svg" viewBox="0.000 0.000 169.392 20.369" fill="#1A1A1A">
				<g transform="translate(-34 -24.816)">
					<path d="M1.816,0-2.5,11.286-6.828,0H-9.3l5.56,13.763h2.478L4.293,0Z" transform="translate(80.358 31.146)"/>
					<path d="M1.029,1-.511.7c-1.459-.274-2.12-.852-2.12-1.843,0-1.238,1.046-2.065,2.725-2.065A2.539,2.539,0,0,1,2.928-.979H5.212C5.049-3.484,2.983-5.135.093-5.135S-4.889-3.375-4.889-.979c0,2.037,1.322,3.247,4.074,3.8l1.486.3c1.789.359,2.45.853,2.45,1.955C3.121,6.37,1.965,7.249.2,7.249c-1.872,0-3.027-.935-3.165-2.449H-5.274C-5.108,7.36-2.824,9.177.2,9.177s5.174-1.79,5.174-4.4C5.377,2.709,4.084,1.608,1.029,1" transform="translate(106.218 36.007)"/>
					<path d="M1.137,0A6.881,6.881,0,0,0-5.826,7.155a6.881,6.881,0,0,0,6.963,7.157A6.882,6.882,0,0,0,8.1,7.155,6.882,6.882,0,0,0,1.137,0m0,12.275c-2.725,0-4.652-2.092-4.652-5.12s1.927-5.119,4.652-5.119S5.789,4.128,5.789,7.155s-1.927,5.12-4.652,5.12" transform="translate(62.365 30.872)"/>
					<path d="M.35.481V-2.19H-1.8V11.572h2.2V4.939C.405,1.8,1.781-.1,4.038-.1A5.479,5.479,0,0,1,5-.015V-2.383a3.406,3.406,0,0,0-.8-.081A4.154,4.154,0,0,0,.35.481" transform="translate(50.521 33.336)"/>
					<path d="M1.029,0h-6.3V19.817h2.339V11.5H1.029a5.761,5.761,0,1,0,0-11.5M.837,9.3H-2.935V2.2H.837c2.339,0,3.853,1.4,3.853,3.551S3.176,9.3.837,9.3" transform="translate(39.274 25.091)"/>
					<path d="M.728,0h-2.2V3.3H-3.73V5.23h2.256v8.752A3.144,3.144,0,0,0-.648,16.4a3.551,3.551,0,0,0,2.533.826,5.2,5.2,0,0,0,1.322-.165V15.028a3.727,3.727,0,0,1-.91.11,1.707,1.707,0,0,1-1.239-.386,1.45,1.45,0,0,1-.33-1.046V5.23H3.207V3.3H.728Z" transform="translate(116.768 27.844)"/>
					<path d="M125.936,2.017h2.2V-11.746h-2.2Z" transform="translate(58.577 42.892)"/>
					<path d="M1.452,1.272c0,2.505-1.293,4.212-3.523,4.212a3.012,3.012,0,0,1-2.311-.991A4.091,4.091,0,0,1-5.237,1.63V-6.517h-2.2V1.85A5.831,5.831,0,0,0-6.09,6.006,4.65,4.65,0,0,0-2.568,7.52,4.48,4.48,0,0,0,1.507,5.152V7.245H3.653V-6.517h-2.2Z" transform="translate(160.81 37.664)"/>
					<path d="M1.137,0A6.882,6.882,0,0,0-5.827,7.155a6.882,6.882,0,0,0,6.964,7.157A6.882,6.882,0,0,0,8.1,7.155,6.882,6.882,0,0,0,1.137,0m0,12.275c-2.726,0-4.652-2.092-4.652-5.12s1.925-5.119,4.652-5.119,4.65,2.092,4.65,5.119-1.925,5.12-4.65,5.12" transform="translate(195.292 30.872)"/>
					<path d="M1.847,1.371A5.433,5.433,0,0,0-2.969-1.244c-3.688,0-6.5,3.11-6.5,7.155s2.807,7.157,6.5,7.157A5.437,5.437,0,0,0,1.875,10.4v2.394H4.022V-7.024H1.847Zm-4.459,9.66c-2.724,0-4.54-2.146-4.54-5.12S-5.336.794-2.612.794,1.93,2.94,1.93,5.911s-1.815,5.12-4.542,5.12" transform="translate(176.774 32.116)"/>
					<path d="M1.4,1.483-.552,1.071C-3.167.52-4.213-.36-4.213-2.149c0-1.983,1.6-3.331,4.073-3.331,2.45,0,4.128,1.348,4.322,3.468H6.658C6.521-5.259,3.659-7.6-.14-7.6c-3.743,0-6.494,2.4-6.494,5.534,0,2.89,1.76,4.569,5.229,5.339L.6,3.712c2.917.635,3.908,1.514,3.908,3.3,0,2.2-1.734,3.633-4.4,3.633-2.78,0-4.6-1.514-4.788-3.937H-7.185c.164,3.525,3.247,6.056,7.293,6.056,3.991,0,6.826-2.476,6.826-5.972,0-2.725-1.87-4.54-5.531-5.312" transform="translate(135.8 32.416)"/>
					<path d="M.728,0h-2.2V3.3H-3.73V5.23h2.256v8.752A3.144,3.144,0,0,0-.648,16.4a3.551,3.551,0,0,0,2.533.826,5.186,5.186,0,0,0,1.321-.165V15.028a3.712,3.712,0,0,1-.908.11,1.707,1.707,0,0,1-1.239-.386,1.45,1.45,0,0,1-.33-1.046V5.23H3.205V3.3H.728Z" transform="translate(147.931 27.844)"/>
					<path d="M1.137,0A6.881,6.881,0,0,0-5.826,7.155a6.881,6.881,0,0,0,6.963,7.157A6.881,6.881,0,0,0,8.1,7.155,6.881,6.881,0,0,0,1.137,0m0,12.275c-2.725,0-4.652-2.092-4.652-5.12s1.927-5.119,4.652-5.119S5.789,4.128,5.789,7.155s-1.927,5.12-4.652,5.12" transform="translate(91.052 30.872)"/>
					<path d="M.279,0A1.681,1.681,0,0,0-1.428,1.707,1.681,1.681,0,0,0,.279,3.413,1.681,1.681,0,0,0,1.985,1.707,1.681,1.681,0,0,0,.279,0" transform="translate(185.336 24.816)"/>
				</g>
			</svg>