<?xml version="1.0" encoding="UTF-8"?><svg xmlns="http://www.w3.org/2000/svg" viewBox="0.000 0.000 209.370 78.410"><defs><style>.d{fill:#1A1A1A;}.e{fill:#1A1A1A;}</style></defs><g id="a"/><g id="b"><g id="c"><g><g><g><path class="e" d="M75.51,20.17l2.77-2.8c1.72,1.84,3.95,2.8,6.2,2.8,2.37,0,3.88-1.02,3.88-2.75s-1.5-2.45-4.88-3.39c-2.91-.81-6.73-2.24-6.73-6.6,0-3.42,2.58-6.32,7.65-6.32,3.2,0,5.87,1.15,7.89,3.02l-2.47,2.96c-1.24-1.13-3.26-2.05-5.25-2.05s-3.53,.97-3.53,2.53c0,1.66,1.85,2.15,4.52,2.98,4.07,1.32,7.16,2.86,7.16,6.78,0,4.25-3.4,6.86-8.16,6.86-3.5,0-6.75-1.38-9.05-4.01Z"/><path class="e" d="M120.98,13.81v10.02h-4.06V14.33c0-2.42-1.22-3.8-3.18-3.8s-3.53,1.83-3.53,3.98v9.32h-4.06V14.33c0-2.42-1.22-3.8-3.18-3.8s-3.55,1.83-3.55,3.98v9.32h-4.06V7.16h3.48l.22,1.72c1.29-1.37,3.13-2.13,4.95-2.13,2.34,0,4.18,1,5.23,2.86,1.26-1.83,3.44-2.86,5.54-2.86,3.72,0,6.19,2.53,6.19,7.06Z"/><path class="e" d="M124.18,23.83V7.14h4.06V23.83h-4.06Z"/><path class="e" d="M132.42,23.83V10.88h-2.39v-3.74h2.37V3.17l4.09-.97V7.14h3.67v3.74h-3.67v12.95h-4.07Z"/><path class="e" d="M157.66,13.97v9.86h-4.07V14.68c0-2.66-1.37-4.14-3.66-4.14s-4.1,1.78-4.1,4.04v9.24h-4.04V0h4.04V8.96c1.27-1.29,3.31-2.16,5.23-2.16,3.99,0,6.6,2.64,6.6,7.17Z"/><path class="e" d="M111.48,34.23h3.53v16.67h-3.55l-.29-1.96c-1.21,1.4-2.91,2.35-5.12,2.35-4.6,0-8.38-3.87-8.38-8.72s3.8-8.72,8.38-8.72c2.26,0,3.96,.97,5.17,2.39l.25-2.02Zm-.29,8.37c0-2.82-2.12-4.9-4.79-4.9s-4.71,2.08-4.71,4.9,2.05,4.85,4.71,4.85,4.79-2.02,4.79-4.85Z"/><path class="e" d="M144.37,40.88v10.02h-4.06v-9.5c0-2.42-1.22-3.8-3.18-3.8s-3.53,1.83-3.53,3.98v9.32h-4.06v-9.5c0-2.42-1.22-3.8-3.18-3.8s-3.55,1.83-3.55,3.98v9.32h-4.06v-16.67h3.48l.22,1.72c1.29-1.37,3.13-2.13,4.95-2.13,2.34,0,4.18,1,5.23,2.86,1.26-1.83,3.44-2.86,5.54-2.86,3.72,0,6.19,2.53,6.19,7.06Z"/><path class="e" d="M164.93,42.58c0,4.85-3.79,8.72-8.38,8.72-2.21,0-3.91-.95-5.12-2.35l-.29,1.96h-3.55V27.43h4.09v8.48c1.18-1.24,2.78-2.05,4.87-2.05,4.58,0,8.38,3.87,8.38,8.72Zm-4.02,.02c0-2.82-2.07-4.9-4.71-4.9s-4.79,2.08-4.79,4.9,2.13,4.85,4.79,4.85,4.71-2.02,4.71-4.85Z"/><path class="e" d="M179.65,35.18l-1.8,3.31c-.81-.57-1.69-.87-2.55-.87-1.83,.02-3.56,1.77-3.64,4.55v8.73h-4.06v-16.67h3.48l.29,2.24c.91-1.59,2.47-2.59,4.42-2.59,1.27,0,2.61,.45,3.85,1.3Z"/><path class="e" d="M182.48,43.93c.54,2.4,2.47,3.82,4.82,3.82,1.64,0,2.96-.6,3.96-1.53l1.94,2.82c-1.54,1.42-3.61,2.31-6.14,2.31-4.96,0-8.59-3.93-8.59-8.72s3.4-8.75,8.16-8.75c5.23,0,8.22,3.63,8.22,8.64,0,.46-.02,.87-.09,1.42h-12.28Zm.03-3.09h8.43c-.49-2.18-1.96-3.45-4.15-3.45s-3.74,1.27-4.28,3.45Z"/><path class="e" d="M197.54,50.9V27.07h4.04v23.83h-4.04Z"/><path class="e" d="M205.33,50.9V27.07h4.04v23.83h-4.04Z"/><path class="e" d="M95.87,77.97h-4.87l-3.5-7.54c-.35,.02-.7,.03-1.07,.03h-3.74v7.51h-4.31v-22.35h9.23c4.6,0,7.68,2.99,7.68,7.41,0,3.05-1.46,5.12-3.66,6.28l4.23,8.65Zm-13.17-11.37h4.53c2.21,0,3.69-1.45,3.69-3.55s-1.57-3.47-3.67-3.47h-4.55v7.02Z"/><path class="e" d="M109.55,61.28h4.06v16.67h-3.48l-.27-2.16c-1.23,1.5-3.45,2.53-5.54,2.53-4.01,0-6.6-2.64-6.6-7.17v-9.86h4.07v9.15c0,2.66,1.37,4.14,3.64,4.14s4.12-1.78,4.12-4.04v-9.24Z"/><path class="e" d="M115.7,75.9l1.92-2.86c1.32,.94,3.44,1.83,5.42,1.83,1.58,0,2.62-.57,2.62-1.64s-1.02-1.56-3.74-2.24c-3.02-.76-5.46-2.32-5.46-5.12s2.42-4.95,6.68-4.95c2.05,0,4.44,.75,6.25,2.07l-1.94,2.91c-1.1-.73-2.94-1.4-4.47-1.4-1.62,0-2.42,.56-2.42,1.43s.8,1.38,3.42,2.07c3.34,.84,5.79,2.13,5.79,5.22s-2.66,5.2-6.62,5.2c-2.99,0-5.52-1.02-7.48-2.51Z"/><path class="e" d="M130.31,75.9l1.92-2.86c1.32,.94,3.44,1.83,5.42,1.83,1.58,0,2.62-.57,2.62-1.64s-1.02-1.56-3.74-2.24c-3.02-.76-5.46-2.32-5.46-5.12s2.42-4.95,6.68-4.95c2.05,0,4.44,.75,6.25,2.07l-1.94,2.91c-1.1-.73-2.94-1.4-4.47-1.4-1.62,0-2.42,.56-2.42,1.43s.8,1.38,3.42,2.07c3.34,.84,5.79,2.13,5.79,5.22s-2.66,5.2-6.62,5.2c-2.99,0-5.52-1.02-7.48-2.51Z"/><path class="e" d="M149.52,71c.54,2.4,2.47,3.82,4.82,3.82,1.64,0,2.96-.6,3.96-1.53l1.94,2.82c-1.54,1.42-3.61,2.31-6.14,2.31-4.96,0-8.59-3.93-8.59-8.72s3.4-8.75,8.16-8.75c5.23,0,8.22,3.63,8.22,8.64,0,.46-.02,.87-.09,1.42h-12.28Zm.03-3.09h8.43c-.49-2.18-1.96-3.45-4.15-3.45s-3.74,1.27-4.28,3.45Z"/><path class="e" d="M164.58,77.97v-23.83h4.04v23.83h-4.04Z"/><path class="e" d="M172.37,77.97v-23.83h4.04v23.83h-4.04Z"/></g><path class="e" d="M86.68,38.8h8.88v10c-2.03,1.57-4.8,2.49-7.71,2.49-6.5,0-11.55-5.16-11.55-11.6s5.05-11.54,11.52-11.54c2.89,0,5.53,1.03,7.52,2.75l-2.54,3.27c-1.29-1.08-3.07-1.89-4.97-1.89-3.86,0-7.17,3.21-7.17,7.45s3.32,7.69,7.2,7.69c1.26,0,2.49-.24,3.62-.73v-4.45h-4.8v-3.45Z"/><polygon class="d" points="60.45 49.5 54.34 49.5 54.34 12.75 0 12.75 0 6.64 60.45 6.64 60.45 49.5"/><polygon class="e" points="60.45 70.97 0 70.97 0 28.11 6.11 28.11 6.11 64.87 60.45 64.87 60.45 70.97"/></g><rect class="e" x="124.18" y="1.16" width="4.06" height="4.06"/></g></g></g></svg>