<?xml version="1.0" encoding="UTF-8"?>
<svg xmlns="http://www.w3.org/2000/svg" viewBox="0.000 52.995 665.136 131.481" fill="#1A1A1A">
  <g transform="translate(0,181.98)">
    <path transform="translate(0.00,0) scale(0.1800,-0.1800)" d="M299.336669921875 -10.62646484375Q229.63818359375 -10.62646484375 183.4757080078125 12.0Q137.313232421875 34.62646484375 114.9036865234375 79.005859375Q92.494140625 123.38525390625 92.494140625 189.830810546875V378.398681640625H49.577880859375Q21.505859375 378.398681640625 6.1566162109375 393.09130859375Q-9.192626953125 407.783935546875 -9.192626953125 434.482421875Q-9.192626953125 461.86767578125 6.1566162109375 476.2169189453125Q21.505859375 490.566162109375 49.577880859375 490.566162109375H92.494140625V567.470703125Q92.494140625 604.7353515625 112.2830810546875 624.180908203125Q132.072021484375 643.62646484375 168.336669921875 643.62646484375Q204.601318359375 643.62646484375 224.046875 624.180908203125Q243.492431640625 604.7353515625 243.492431640625 567.470703125V490.566162109375H337.589599609375Q365.974853515625 490.566162109375 381.16748046875 476.2169189453125Q396.360107421875 461.86767578125 396.360107421875 434.482421875Q396.360107421875 407.783935546875 381.16748046875 393.09130859375Q365.974853515625 378.398681640625 337.589599609375 378.398681640625H243.492431640625V196.204345703125Q243.492431640625 153.842529296875 262.7696533203125 132.974853515625Q282.046875 112.107177734375 324.66162109375 112.107177734375Q340.095458984375 112.107177734375 353.095458984375 115.107177734375Q366.095458984375 118.107177734375 376.721923828125 118.7939453125Q390.601318359375 119.7939453125 399.6976318359375 110.1976318359375Q408.7939453125 100.601318359375 408.7939453125 69.2763671875Q408.7939453125 44.577880859375 401.041015625 26.572021484375Q393.2880859375 8.566162109375 373.15576171875 1Q359.529296875 -3.62646484375 337.1197509765625 -7.12646484375Q314.710205078125 -10.62646484375 299.336669921875 -10.62646484375Z" />
    <path transform="translate(72.72,0) scale(0.1800,-0.1800)" d="M312.89111328125 -10.62646484375Q226.445556640625 -10.62646484375 163.7830810546875 20.686767578125Q101.12060546875 52 67.36767578125 109.4698486328125Q33.61474609375 166.939697265625 33.61474609375 245.2529296875Q33.61474609375 321.2529296875 66.054443359375 378.566162109375Q98.494140625 435.87939453125 155.560302734375 468.5360107421875Q212.62646484375 501.192626953125 285.505859375 501.192626953125Q339.072021484375 501.192626953125 382.13818359375 483.7227783203125Q425.204345703125 466.2529296875 455.957275390625 433.62646484375Q486.710205078125 401 502.836669921875 354.7169189453125Q518.963134765625 308.433837890625 518.963134765625 250.807373046875Q518.963134765625 231.86767578125 507.089599609375 222.36767578125Q495.216064453125 212.86767578125 471.90283203125 212.86767578125H158.107177734375V290.819091796875H409.9765625L394.289794921875 277.072021484375Q394.289794921875 318.37353515625 382.35595703125 345.61474609375Q370.422119140625 372.85595703125 347.8978271484375 387.0067138671875Q325.37353515625 401.157470703125 292.072021484375 401.157470703125Q255.39697265625 401.157470703125 229.1859130859375 384.163330078125Q202.974853515625 367.169189453125 189.1976318359375 335.2713623046875Q175.42041015625 303.37353515625 175.42041015625 257.819091796875V250.192626953125Q175.42041015625 173.517578125 210.474853515625 137.8726806640625Q245.529296875 102.227783203125 316.14404296875 102.227783203125Q340.2646484375 102.227783203125 370.88525390625 108.101318359375Q401.505859375 113.974853515625 428.939697265625 127.15576171875Q452.445556640625 138.216064453125 470.01171875 134.3668212890625Q487.577880859375 130.517578125 497.5477294921875 117.8551025390625Q507.517578125 105.192626953125 509.0477294921875 88.0301513671875Q510.577880859375 70.86767578125 501.6683349609375 54.301513671875Q492.7587890625 37.7353515625 472.2529296875 27.048583984375Q437.566162109375 7.86767578125 395.0418701171875 -1.37939453125Q352.517578125 -10.62646484375 312.89111328125 -10.62646484375Z" />
    <path transform="translate(171.54,0) scale(0.1800,-0.1800)" d="M235.445556640625 -10.62646484375Q145.86767578125 -10.62646484375 102.1448974609375 38.9095458984375Q58.422119140625 88.445556640625 58.422119140625 186.39697265625V637.470703125Q58.422119140625 674.7353515625 77.86767578125 694.180908203125Q97.313232421875 713.62646484375 133.577880859375 713.62646484375Q169.842529296875 713.62646484375 189.6314697265625 694.180908203125Q209.42041015625 674.7353515625 209.42041015625 637.470703125V192.083740234375Q209.42041015625 150.7822265625 226.5711669921875 131.2880859375Q243.721923828125 111.7939453125 273.14404296875 111.7939453125Q280.830810546875 111.7939453125 288.14404296875 112.7637939453125Q295.457275390625 113.733642578125 303.083740234375 114.42041015625Q318.963134765625 115.7939453125 325.529296875 104.5711669921875Q332.095458984375 93.348388671875 332.095458984375 58.710205078125Q332.095458984375 29.01171875 320.216064453125 13.2889404296875Q308.336669921875 -2.433837890625 282.517578125 -6.686767578125Q273.457275390625 -7.686767578125 260.4212646484375 -9.1566162109375Q247.38525390625 -10.62646484375 235.445556640625 -10.62646484375Z" />
    <path transform="translate(231.48,0) scale(0.1800,-0.1800)" d="M135.577880859375 -8.62646484375Q99.313232421875 -8.62646484375 79.86767578125 11.1624755859375Q60.422119140625 30.951416015625 60.422119140625 68.216064453125V423.036865234375Q60.422119140625 460.301513671875 79.7110595703125 479.7470703125Q99 499.192626953125 134.2646484375 499.192626953125Q169.529296875 499.192626953125 188.66162109375 479.7470703125Q207.7939453125 460.301513671875 207.7939453125 423.036865234375V359.12060546875L196.7939453125 398.517578125Q217.107177734375 445.38525390625 258.9505615234375 473.2889404296875Q300.7939453125 501.192626953125 358.16748046875 501.192626953125Q414.66162109375 501.192626953125 452.8182373046875 474.13232421875Q490.974853515625 447.072021484375 507.227783203125 391.2646484375H493.227783203125Q514.7939453125 442.38525390625 560.6373291015625 471.7889404296875Q606.480712890625 501.192626953125 664.91455078125 501.192626953125Q721.541015625 501.192626953125 758.354248046875 478.7227783203125Q795.16748046875 456.2529296875 813.3240966796875 410.5Q831.480712890625 364.7470703125 831.480712890625 294.554443359375V68.216064453125Q831.480712890625 30.951416015625 811.6917724609375 11.1624755859375Q791.90283203125 -8.62646484375 755.63818359375 -8.62646484375Q719.37353515625 -8.62646484375 699.927978515625 11.1624755859375Q680.482421875 30.951416015625 680.482421875 68.216064453125V289.554443359375Q680.482421875 339.289794921875 664.801513671875 361.84423828125Q649.12060546875 384.398681640625 611.698486328125 384.398681640625Q568.963134765625 384.398681640625 545.03515625 354.1273193359375Q521.107177734375 323.85595703125 521.107177734375 268.807373046875V68.216064453125Q521.107177734375 30.951416015625 501.66162109375 11.1624755859375Q482.216064453125 -8.62646484375 445.951416015625 -8.62646484375Q409.686767578125 -8.62646484375 389.8978271484375 11.1624755859375Q370.10888671875 30.951416015625 370.10888671875 68.216064453125V289.554443359375Q370.10888671875 339.289794921875 354.427978515625 361.84423828125Q338.7470703125 384.398681640625 302.01171875 384.398681640625Q259.2763671875 384.398681640625 235.348388671875 354.1273193359375Q211.42041015625 323.85595703125 211.42041015625 268.807373046875V68.216064453125Q211.42041015625 -8.62646484375 135.577880859375 -8.62646484375Z" />
    <path transform="translate(391.50,0) scale(0.1800,-0.1800)" d="M294.2646484375 -10.62646484375Q215.445556640625 -10.62646484375 156.939697265625 20.37353515625Q98.433837890625 51.37353515625 66.0242919921875 109.186767578125Q33.61474609375 167 33.61474609375 245.62646484375Q33.61474609375 304.939697265625 51.8978271484375 351.9095458984375Q70.180908203125 398.87939453125 104.5904541015625 432.5360107421875Q139 466.192626953125 187.0360107421875 483.692626953125Q235.072021484375 501.192626953125 294.2646484375 501.192626953125Q373.39697265625 501.192626953125 431.7462158203125 470.192626953125Q490.095458984375 439.192626953125 522.5050048828125 381.87939453125Q554.91455078125 324.566162109375 554.91455078125 245.62646484375Q554.91455078125 186.313232421875 536.6314697265625 139.0Q518.348388671875 91.686767578125 483.9388427734375 58.0301513671875Q449.529296875 24.37353515625 401.4932861328125 6.87353515625Q353.457275390625 -10.62646484375 294.2646484375 -10.62646484375ZM294.2646484375 102.227783203125Q326.566162109375 102.227783203125 350.9639892578125 117.8785400390625Q375.36181640625 133.529296875 389.1390380859375 165.2705078125Q402.916259765625 197.01171875 402.916259765625 245.62646484375Q402.916259765625 319.048583984375 372.8316650390625 353.6934814453125Q342.7470703125 388.33837890625 294.2646484375 388.33837890625Q262.2763671875 388.33837890625 237.721923828125 373.031005859375Q213.16748046875 357.7236328125 199.3902587890625 326.1390380859375Q185.613037109375 294.554443359375 185.613037109375 245.62646484375Q185.613037109375 172.89111328125 215.6976318359375 137.5594482421875Q245.7822265625 102.227783203125 294.2646484375 102.227783203125Z" />
    <path transform="translate(497.52,0) scale(0.1800,-0.1800)" d="M135.89111328125 -8.62646484375Q98.313232421875 -8.62646484375 78.36767578125 11.1624755859375Q58.422119140625 30.951416015625 58.422119140625 68.216064453125V423.036865234375Q58.422119140625 460.301513671875 77.7110595703125 479.7470703125Q97 499.192626953125 132.2646484375 499.192626953125Q167.529296875 499.192626953125 186.66162109375 479.7470703125Q205.7939453125 460.301513671875 205.7939453125 423.036865234375V371H195.7939453125Q207.601318359375 431 248.91455078125 464.0360107421875Q290.227783203125 497.072021484375 355.40869140625 501.192626953125Q380.16748046875 502.566162109375 393.607177734375 488.5Q407.046875 474.433837890625 408.42041015625 440.916259765625Q409.7939453125 410.278076171875 395.5108642578125 392.1156005859375Q381.227783203125 373.953125 347.0234375 370.32666015625L324.39697265625 368.32666015625Q267.468994140625 362.953125 239.7579345703125 334.898681640625Q212.046875 306.84423828125 212.046875 254.2294921875V68.216064453125Q212.046875 30.951416015625 192.601318359375 11.1624755859375Q173.15576171875 -8.62646484375 135.89111328125 -8.62646484375Z" />
    <path transform="translate(571.68,0) scale(0.1800,-0.1800)" d="M312.89111328125 -10.62646484375Q226.445556640625 -10.62646484375 163.7830810546875 20.686767578125Q101.12060546875 52 67.36767578125 109.4698486328125Q33.61474609375 166.939697265625 33.61474609375 245.2529296875Q33.61474609375 321.2529296875 66.054443359375 378.566162109375Q98.494140625 435.87939453125 155.560302734375 468.5360107421875Q212.62646484375 501.192626953125 285.505859375 501.192626953125Q339.072021484375 501.192626953125 382.13818359375 483.7227783203125Q425.204345703125 466.2529296875 455.957275390625 433.62646484375Q486.710205078125 401 502.836669921875 354.7169189453125Q518.963134765625 308.433837890625 518.963134765625 250.807373046875Q518.963134765625 231.86767578125 507.089599609375 222.36767578125Q495.216064453125 212.86767578125 471.90283203125 212.86767578125H158.107177734375V290.819091796875H409.9765625L394.289794921875 277.072021484375Q394.289794921875 318.37353515625 382.35595703125 345.61474609375Q370.422119140625 372.85595703125 347.8978271484375 387.0067138671875Q325.37353515625 401.157470703125 292.072021484375 401.157470703125Q255.39697265625 401.157470703125 229.1859130859375 384.163330078125Q202.974853515625 367.169189453125 189.1976318359375 335.2713623046875Q175.42041015625 303.37353515625 175.42041015625 257.819091796875V250.192626953125Q175.42041015625 173.517578125 210.474853515625 137.8726806640625Q245.529296875 102.227783203125 316.14404296875 102.227783203125Q340.2646484375 102.227783203125 370.88525390625 108.101318359375Q401.505859375 113.974853515625 428.939697265625 127.15576171875Q452.445556640625 138.216064453125 470.01171875 134.3668212890625Q487.577880859375 130.517578125 497.5477294921875 117.8551025390625Q507.517578125 105.192626953125 509.0477294921875 88.0301513671875Q510.577880859375 70.86767578125 501.6683349609375 54.301513671875Q492.7587890625 37.7353515625 472.2529296875 27.048583984375Q437.566162109375 7.86767578125 395.0418701171875 -1.37939453125Q352.517578125 -10.62646484375 312.89111328125 -10.62646484375Z" />
  </g>
</svg>
